# xmcd
#
# Track frame offsets: 
#        150
#        20138
#        37899
#        56609
#        72838
#        87280
#        102853
#        119049
#        137040
#        155342
#        173134
#        190758
#        206741
#        223584
#        242854
#        258799
#
# Disc length: 3794 seconds
#
# Revision: 0
# Processed by: cddbd v1.5.2PL0 Copyright (c) Steve Scherf et al.
# Submitted via: ExactAudioCopy v0.99pb5
#
DISCID=e40ed010
DTITLE=MDO - Subir al Cielo
DYEAR=2000
DGENRE=Latin
TTITLE0=Te quise olvidar
TTITLE1=Cuatro paredes
TTITLE2=Dejame subirte al cielo
TTITLE3=A mi amor tu vas a extrañar
TTITLE4=Baila
TTITLE5=Sin ti
TTITLE6=Tonight, Te amare
TTITLE7=Es la cosa
TTITLE8=Yo no tengo corazon
TTITLE9=Someone help me!
TTITLE10=Lock all the doors
TTITLE11=Mil Angeles
TTITLE12=No puedo olvidar (versión balada)
TTITLE13=Solo pienso en ti
TTITLE14=No puedo olvidarme de ti
TTITLE15=Buscame
EXTD=
EXTT0=
EXTT1=
EXTT2=
EXTT3=
EXTT4=
EXTT5=
EXTT6=
EXTT7=
EXTT8=
EXTT9=
EXTT10=
EXTT11=
EXTT12=
EXTT13=
EXTT14=
EXTT15=
PLAYORDER=
